Coordinates
version=1
nRows=9
nColumns=24
inDegrees=yes

Units are S.I. units (second, meters, Newtons, ...)
Angles are in degrees.

endheader
time	pelvis_tilt	pelvis_list	pelvis_rotation	pelvis_tx	pelvis_ty	pelvis_tz	hip_flexion_r	hip_adduction_r	hip_rotation_r	knee_angle_r	ankle_angle_r	subtalar_angle_r	mtp_angle_r	hip_flexion_l	hip_adduction_l	hip_rotation_l	knee_angle_l	ankle_angle_l	subtalar_angle_l	mtp_angle_l	lumbar_extension	lumbar_bending	lumbar_rotation
      0.52500000	     -2.00806787	      0.29853569	      7.57385656	     -0.77085101	      1.02480442	      0.31156991	     19.58221742	      1.59977911	    -11.05605591	      6.91418806	      4.04682452	      1.55474046	      4.28495490	    -12.42124862	      4.51883362	     10.03359325	     -8.69666904	      9.21201049	     -5.38635190	     -2.82300881	     -4.38952310	     -3.20560875	     -6.66509871
      0.52916667	     -1.94060709	      0.24805030	      7.62571701	     -0.76483714	      1.02432246	      0.31163200	     19.47366338	      1.76484789	    -10.96510841	      6.67712043	      4.19750019	      1.38777284	      4.32603952	    -12.49867636	      4.41969219	      9.86719572	     -9.38909426	      9.40918131	     -4.98123987	     -2.79334846	     -4.39109772	     -3.16066889	     -6.66691823
      0.53333333	     -1.88935067	      0.19865701	      7.67426351	     -0.75880798	      1.02383495	      0.31166816	     19.39133364	      1.91993045	    -10.82803239	      6.36906186	      4.22650666	      1.04597848	      4.40716219	    -12.54347139	      4.33106371	      9.72083775	    -10.10939360	      9.52764063	     -4.65987056	     -2.71530414	     -4.36252100	     -3.09560668	     -6.68427935
      0.53750000	     -1.81371187	      0.13468838	      7.72793559	     -0.75273374	      1.02339083	      0.31167178	     19.27799833	      2.08513752	    -10.65600334	      6.01542987	      4.26613259	      0.67429392	      4.50027813	    -12.60591015	      4.22714658	      9.61550653	    -10.84815396	      9.61575352	     -4.40364923	     -2.61647191	     -4.35787903	     -3.00112250	     -6.69393991
      0.54166667	     -1.72244119	      0.07278407	      7.77518601	     -0.74664461	      1.02300414	      0.31168662	     19.15599947	      2.24903047	    -10.47644109	      5.61238432	      4.11850541	      0.17005461	      4.65788599	    -12.65323946	      4.11889549	      9.41064863	    -11.63969401	      9.68174280	     -4.03676607	     -2.43611908	     -4.37702038	     -2.92684979	     -6.71242585
      0.54583333	     -1.65076760	     -0.01313065	      7.82614410	     -0.74050287	      1.02258577	      0.31166960	     19.05289842	      2.42780572	    -10.25757629	      5.17447231	      4.00059875	     -0.35630522	      4.82068994	    -12.66553061	      3.99340103	      9.25532340	    -12.46187253	      9.71484661	     -3.74465139	     -2.24239027	     -4.35330666	     -2.79233685	     -6.72659052
      0.55000000	     -1.55137665	     -0.08880580	      7.87128972	     -0.73434195	      1.02223057	      0.31165922	     18.92046362	      2.59907946	    -10.02301438	      4.71318343	      3.73748196	     -0.98945772	      5.01639498	    -12.68245878	      3.87086019	      9.02604916	    -13.32392529	      9.69616988	     -3.40006617	     -1.99428768	     -4.36206502	     -2.68070347	     -6.74612498
      0.55416667	     -1.44815344	     -0.15226276	      7.91606895	     -0.72818442	      1.02189909	      0.31165250	     18.78510016	      2.75466504	     -9.75822911	      4.22914894	      3.38145571	     -1.69690160	      5.30863000	    -12.67957845	      3.76027754	      8.79260770	    -14.23239347	      9.68426908	     -3.04617035	     -1.60656413	     -4.39185833	     -2.61651888	     -6.75341810
      0.55833333	     -1.34598667	     -0.24841295	      7.95986610	     -0.72193777	      1.02157331	      0.31161562	     18.64860385	      2.94052219	     -9.52254586	      3.74106926	      2.92689413	     -2.41796515	      8.01623295	    -12.67384325	      3.61601731	      8.57462791	    -15.12662036	      9.45395417	     -2.84143842	      2.12292111	     -4.37769573	     -2.45945029	     -6.72243238
